# xmcd
#
# Track frame offsets:
#	150
#	15030
#	36987
#
# Disc length: 773 seconds
#
# Revision: 0
# Processed by: cddbd v1.5.1PL0 Copyright (c) Steve Scherf et al.
# Submitted via: audiograbber 1.83.01
#
DISCID=14030303
DTITLE=P. U. B. (Public Urban Bottle) - Whisky In The Jar (Maxi Cd)
DYEAR=1995
DGENRE=Dance
TTITLE0=Whisky In The Jar (Radio - Edit)
TTITLE1=Whisky In The Jar (Dance Mix)
TTITLE2=Whisky In The Jar (Instrumental)
EXTD=
EXTT0=
EXTT1=
EXTT2=
PLAYORDER=
